<svg width="1440" height="1236" viewBox="0 0 1440 1236" fill="none" xmlns="http://www.w3.org/2000/svg">
<path d="M294.168 1235.96C251.923 1235.96 209.679 1226.43 165.89 1207.02C62.3403 1161.16 3.09561 1085.65 10.8232 1010.15C14.4294 974.159 35.5514 940.993 56.1583 908.886C76.7651 876.779 97.8872 843.613 100.978 808.33C108.706 718.36 -4.11679 628.742 -94.787 557.118C-120.03 537.36 -143.728 518.307 -163.82 500.666C-266.854 408.931 -343.1 329.193 -308.583 204.998C-305.492 194.06 -302.916 182.417 -299.825 171.48C-282.825 99.8559 -264.794 25.4096 -142.183 4.94571C-44.3001 -11.6371 58.7342 3.53443 158.677 18.0003C227.195 27.8794 297.774 38.1113 365.261 37.7585C530.631 37.0529 664.576 -58.9158 782.55 -143.594C809.339 -162.647 834.582 -180.994 859.31 -197.224C867.038 -202.163 874.766 -207.456 883.524 -213.454C987.588 -283.313 1161.72 -400.804 1300.81 -327.064C1400.76 -274.14 1417.24 -164.411 1430.64 -75.8514C1432.7 -62.0912 1434.76 -49.3895 1436.82 -37.0406C1439.39 -22.9275 1441.97 -8.81451 1444.55 5.29853C1462.06 103.737 1480.09 205.351 1516.67 302.731C1545 378.588 1594.98 449.859 1643.92 518.66C1667.1 551.473 1690.8 585.344 1711.92 618.863C1755.19 688.722 1845.86 833.734 1727.37 922.646C1646.49 982.979 1505.34 980.862 1392 978.745H1381.69C1330.69 978.04 1278.14 975.57 1227.66 973.1C1114.32 967.808 996.861 962.515 883.524 974.511C740.306 989.683 645.514 1058.84 553.814 1125.52C544.026 1132.58 534.237 1139.63 524.449 1146.69C462.629 1191.15 412.142 1216.2 361.14 1228.55C338.472 1233.49 316.32 1235.96 294.168 1235.96ZM-49.967 1.41745C-80.8773 1.41745 -111.272 3.53441 -141.152 8.47397C-260.157 28.5851 -277.673 101.62 -294.673 172.185C-297.249 183.476 -300.34 194.766 -303.431 206.056C-337.948 328.84 -262.218 408.226 -159.699 498.902C-140.122 516.543 -116.424 535.243 -91.1807 555.001C0.0046087 627.331 113.858 716.949 106.13 808.683C103.039 844.672 81.9169 878.19 60.7948 910.65C40.7031 942.404 19.5811 975.217 15.9749 1010.5C8.24732 1084.59 66.9769 1158.69 168.981 1203.85C314.259 1268.42 423.991 1213.02 520.843 1143.87C530.631 1136.81 540.419 1129.75 550.208 1122.7C642.423 1055.31 738.245 985.802 883.008 970.63C996.861 958.634 1114.32 963.927 1228.17 969.219C1278.66 971.689 1331.21 974.159 1381.69 974.864H1392C1504.31 976.628 1643.92 979.098 1723.25 919.823C1839.68 832.675 1750.04 689.075 1706.77 619.921C1685.65 586.403 1661.95 552.532 1639.28 519.719C1590.85 450.565 1540.37 378.941 1512.03 303.084C1475.46 205.351 1457.42 103.737 1439.91 5.29853C1437.33 -8.81451 1434.76 -22.9275 1432.18 -37.0406C1430.12 -49.0367 1428.06 -62.0912 1426 -75.8514C1412.6 -163.352 1396.12 -272.728 1297.72 -324.594C1162.23 -396.217 990.164 -280.491 887.13 -211.337C878.372 -205.691 870.644 -200.046 862.917 -195.107C838.188 -178.877 812.945 -160.53 786.156 -141.477C667.152 -56.446 532.692 40.2283 365.261 40.934C297.258 41.2868 226.165 31.0548 157.647 21.1757C88.6141 11.6494 18.5508 1.41745 -49.967 1.41745Z" fill="black" fill-opacity="0.05"/>
<path d="M313.744 1173.51C280.773 1173.51 248.317 1167.51 215.346 1155.16C118.494 1118.82 60.7949 1047.19 68.5224 972.747C71.6135 941.346 89.1293 910.65 106.13 881.365C125.706 847.494 145.798 812.564 143.737 776.223C139.101 694.72 46.37 619.568 -36.0574 553.237C-57.1794 535.949 -77.7863 519.719 -95.3021 503.842C-182.881 425.867 -273.551 345.07 -241.096 238.869C-221.004 173.949 -190.094 103.384 -70.5739 84.6844C8.24736 72.3354 90.1596 79.3919 169.496 86.0956C233.892 91.388 300.35 97.0333 364.746 92.4465C522.904 80.8033 655.303 -9.52018 772.247 -89.2589C799.036 -107.606 824.279 -124.541 849.007 -140.419C857.25 -145.711 866.008 -151.356 875.281 -157.354C971.103 -219.804 1130.81 -324.241 1257.02 -260.732C1348.72 -214.512 1364.69 -108.664 1376.03 -31.0426C1377.57 -19.3993 1379.12 -8.4617 1381.18 1.77026C1384.79 21.8813 1387.88 42.6981 1391.48 62.4563C1404.88 143.606 1418.27 227.579 1448.67 308.023C1474.94 377.53 1520.28 444.214 1563.55 508.428C1586.73 542.652 1610.95 578.288 1631.55 613.57C1672.25 682.724 1739.74 798.451 1656.8 877.837C1586.22 945.227 1441.45 942.404 1335.84 940.287L1324.51 939.934C1278.66 939.229 1230.75 936.406 1184.38 933.936C1078.77 927.938 969.557 921.94 866.523 936.053C738.761 953.695 647.575 1014.73 558.966 1073.66C549.177 1080.36 539.389 1086.71 529.086 1093.41L528.055 1092L529.601 1093.41C489.418 1119.88 440.991 1148.81 386.383 1163.63C361.655 1169.98 337.442 1173.51 313.744 1173.51ZM25.248 81.5089C-6.69262 81.5089 -38.1181 83.2731 -69.5435 88.2126C-185.972 106.207 -216.367 175.713 -235.944 239.575C-267.885 344.011 -178.245 424.103 -91.1807 501.725C-73.6649 517.249 -53.5732 533.479 -32.4512 550.767C49.9762 617.804 143.737 693.309 148.374 775.87C150.435 812.917 130.343 848.2 110.766 882.424C93.7658 911.708 76.7652 941.699 73.6741 972.747C65.9466 1046.14 122.615 1116.35 217.922 1151.98C251.923 1164.68 283.864 1169.98 314.259 1169.98C396.687 1169.98 465.72 1130.46 525.995 1090.59C535.783 1084.24 545.571 1077.54 555.875 1070.83C644.999 1011.56 736.7 950.166 866.008 932.172C969.557 917.706 1079.29 924.057 1185.41 930.055C1231.78 932.525 1279.18 935.348 1325.03 936.053L1336.36 936.406C1446.61 938.523 1584.16 941.346 1652.67 875.367C1734.07 797.393 1667.1 682.724 1626.92 614.276C1606.31 578.994 1582.1 543.358 1558.91 509.134C1515.12 444.567 1470.3 377.883 1444.03 308.023C1413.64 227.579 1399.73 143.606 1386.85 62.1035C1383.76 41.9924 1380.15 21.5285 1376.54 1.41743C1375 -8.81452 1372.94 -19.7521 1371.39 -31.3954C1360.06 -108.311 1344.6 -213.454 1254.45 -258.615C1131.84 -320.36 973.679 -216.982 879.402 -155.237C870.129 -149.239 861.371 -143.241 853.129 -138.302C828.4 -122.424 803.157 -105.489 776.368 -87.1419C658.909 -7.05038 525.48 83.6259 365.776 95.622C300.865 100.562 233.892 94.9163 169.496 89.2711C121.585 85.39 73.159 81.5089 25.248 81.5089Z" fill="black" fill-opacity="0.05"/>
<path d="M345.169 1107.53C313.744 1107.53 281.288 1101.88 246.772 1088.12C162.284 1054.96 115.918 997.445 119.009 930.761C120.555 902.535 131.888 874.662 142.707 847.847C157.132 812.917 171.557 776.576 163.829 739.529C149.919 671.787 72.1286 606.867 3.61077 549.356C-12.8747 535.243 -28.845 522.189 -42.7547 509.487C-47.3912 505.253 -52.5429 500.666 -57.6946 496.432C-128.788 433.276 -209.67 361.653 -179.275 278.739C-155.577 214.877 -98.9083 174.655 -10.814 159.131C51.5217 148.193 116.949 148.899 180.83 149.604C246.257 150.31 313.744 151.016 378.14 138.667C516.206 112.205 636.756 35.9944 742.882 -31.7482C770.701 -49.3895 796.975 -65.9723 822.733 -81.4967C830.976 -86.4362 839.734 -91.7286 849.007 -97.3738C936.071 -150.651 1081.35 -240.268 1195.2 -192.284C1285.36 -154.532 1303.9 -56.0932 1317.3 15.8833C1318.84 24.3511 1320.39 32.4661 1321.93 40.2283C1326.57 61.7507 1330.69 83.6259 1334.3 104.795C1347.18 173.949 1360.57 245.22 1388.39 313.316C1412.6 371.532 1448.15 428.69 1482.67 483.731C1506.37 521.13 1530.58 559.941 1550.67 598.399C1585.7 665.083 1638.76 766.344 1560.97 840.085C1496.06 901.477 1371.91 901.124 1272.48 900.771H1268.87C1229.72 900.771 1189.02 899.36 1149.87 897.595C1048.89 894.067 944.314 890.186 847.977 907.827C743.912 927.233 659.939 975.217 579.057 1021.79C567.208 1028.49 555.359 1035.2 543.51 1041.9C485.811 1075.07 419.869 1107.53 345.169 1107.53ZM134.464 152.78C86.0382 152.78 37.6121 154.544 -9.26852 162.659C-95.3021 177.83 -150.941 217.347 -174.123 279.797C-204.003 360.947 -124.152 431.865 -53.5733 494.668C-48.4215 499.255 -43.785 503.489 -38.6333 507.723C-24.7236 520.424 -8.75333 533.479 7.73215 547.592C76.7651 605.103 154.556 670.375 168.981 739.177C176.708 776.929 161.768 813.623 147.344 848.905C136.525 875.367 125.191 902.888 124.161 930.761C121.07 996.034 166.405 1052.49 249.348 1084.95C363.716 1130.11 459.537 1084.95 540.935 1039.43C552.784 1032.73 564.632 1026.02 576.481 1019.32C657.878 972.747 741.851 924.41 847.462 904.652C944.829 886.658 1049.92 890.539 1150.9 894.067C1190.05 895.478 1230.75 896.89 1269.9 897.243H1273.51C1371.91 897.595 1494.52 897.948 1557.88 837.968C1628.46 771.284 1591.37 683.43 1547.06 599.457C1526.97 560.999 1502.76 522.189 1479.06 484.789C1444.55 429.748 1409 372.59 1384.27 314.021C1355.94 245.926 1342.54 174.302 1329.66 104.795C1325.54 83.6259 1321.42 61.7507 1317.3 40.2283C1315.75 32.4661 1314.21 24.3511 1312.66 15.8833C1299.27 -55.3875 1281.24 -152.768 1192.63 -189.814C1082.38 -236.034 938.647 -147.828 852.613 -95.2569C843.34 -89.6117 834.582 -84.3193 826.339 -79.3797C800.066 -63.8554 774.307 -47.2725 746.488 -29.6312C639.847 38.1113 518.782 115.027 379.686 141.489C314.774 153.838 246.772 153.133 181.345 152.427C165.375 153.133 149.919 152.78 134.464 152.78Z" fill="black" fill-opacity="0.05"/>
<path d="M382.777 1040.49C349.291 1040.49 314.259 1034.49 278.197 1020.03C209.679 992.505 165.89 942.404 160.223 885.952C157.647 860.549 162.799 835.498 167.951 811.153C174.133 780.81 180.83 749.408 172.072 718.36C154.041 653.793 87.0686 596.282 28.339 545.828C17.5204 536.654 7.21699 527.834 -2.57127 519.013C-121.576 413.518 -126.212 346.834 -109.212 309.787C-91.6959 271.682 -43.2698 243.456 35.5514 226.52C87.0686 215.23 140.646 210.643 192.164 206.056C255.014 200.411 320.441 194.766 381.231 177.478C501.782 142.901 605.846 83.273 706.82 25.4096C732.578 10.5909 759.367 -4.58064 785.641 -19.0465C793.369 -23.2804 801.611 -27.8672 810.369 -32.8067C899.494 -82.908 1033.44 -158.766 1141.11 -111.134C1216.84 -77.6156 1238.48 2.82869 1253.93 61.3978C1255.99 68.1015 1257.54 74.4524 1259.08 80.8032C1265.27 101.973 1270.93 123.495 1276.08 143.959C1291.02 200.764 1306.48 259.686 1331.72 316.491C1352.84 363.417 1379.12 410.343 1404.36 455.504C1427.03 495.727 1450.21 537.007 1469.79 578.641C1512.03 667.906 1509.46 738.118 1461.03 786.808C1416.73 831.97 1333.78 857.726 1215.81 863.018C1179.23 864.783 1142.14 865.135 1106.08 865.841C1024.68 866.899 940.192 867.958 859.31 883.482C764.519 901.476 683.637 938.876 604.816 975.217C590.906 981.568 576.997 988.272 562.572 994.622C507.448 1018.61 447.173 1040.49 382.777 1040.49ZM1065.89 -123.483C977.8 -123.483 881.978 -69.5006 813.975 -31.0426C805.218 -26.103 796.975 -21.1635 789.247 -16.9296C762.974 -2.46369 736.185 12.7078 710.426 27.5265C609.452 85.39 504.357 145.37 383.292 180.3C321.472 197.941 256.045 203.587 192.679 209.232C141.162 213.819 87.5837 218.405 36.5818 229.696C-40.1788 246.631 -88.0897 273.799 -104.575 310.846C-121.061 347.187 -115.909 412.46 1.55012 516.896C11.3384 525.717 21.6418 534.537 32.4604 543.711C91.7051 594.871 159.193 652.734 177.224 718.007C185.981 749.761 179.284 781.516 173.102 812.211C167.951 836.204 162.799 861.254 165.375 886.305C170.526 941.346 213.801 990.388 280.773 1017.56C383.807 1058.84 476.023 1029.2 561.026 990.741C574.936 984.39 588.846 978.04 602.755 971.336C681.576 934.995 762.974 897.243 858.795 879.248C940.193 863.724 1024.68 862.666 1106.59 861.607C1142.65 861.254 1179.75 860.549 1216.32 858.784C1332.75 853.492 1414.15 828.089 1457.42 783.985C1504.82 736.001 1507.4 667.2 1465.67 578.994C1446.09 537.713 1422.91 496.079 1400.24 456.21C1375 411.048 1348.72 364.122 1327.09 317.197C1301.33 260.392 1285.87 201.47 1270.93 144.312C1265.27 123.495 1260.11 102.326 1253.93 81.1561C1252.39 75.158 1250.33 68.4543 1248.78 61.7506C1233.32 3.88719 1211.69 -75.4986 1138.02 -108.311C1115.35 -119.249 1091.14 -123.483 1065.89 -123.483Z" fill="black" fill-opacity="0.05"/>
<path d="M437.9 970.983C399.262 970.983 362.17 965.691 328.684 955.106C261.712 933.937 214.831 892.656 197.315 839.026C189.588 815.74 189.073 791.748 188.557 768.461C188.042 742.705 187.012 715.89 176.708 690.839C155.071 638.268 103.554 592.754 53.0673 548.651C45.8549 542.3 38.6424 535.949 31.43 529.598C-43.2698 462.914 -71.0891 409.99 -54.6036 367.651C-41.2091 333.78 1.5501 305.906 72.6438 285.795C116.949 273.093 162.799 263.92 207.619 255.099C262.227 244.162 318.896 233.224 371.958 215.583C474.477 181.359 567.724 133.022 658.394 86.4485C686.213 71.9827 715.063 57.5168 742.882 43.4038C749.579 39.8755 757.307 36.3472 765.034 32.4661C843.34 -7.40321 961.83 -67.3836 1061.26 -37.7462C1141.11 -13.754 1170.47 58.9281 1192.11 112.205L1195.2 120.32C1222.51 187.357 1254.96 254.746 1286.39 320.019C1322.96 396.23 1360.57 474.91 1390.97 553.59C1420.33 630.153 1413.12 695.426 1369.33 741.999C1329.66 784.338 1261.14 811.859 1165.32 823.149C1130.81 827.383 1096.29 830.206 1062.29 833.381C1000.47 838.674 936.586 844.319 874.766 856.668C782.55 874.662 697.547 905.711 615.119 935.701C606.361 938.876 597.088 942.404 588.33 945.58C539.389 962.163 487.872 970.983 437.9 970.983ZM1003.04 -42.6858C920.101 -42.6858 830.461 2.82877 767.095 34.5831C759.367 38.4642 752.155 42.3453 744.942 45.8735C716.608 59.9866 688.274 74.4524 660.454 88.9183C569.784 135.491 476.023 183.828 373.504 218.405C319.926 236.4 263.257 247.337 208.649 258.275C164.344 267.095 117.979 276.269 74.1893 288.618C4.64115 308.729 -37.0877 335.544 -49.967 368.356C-65.9373 409.637 -38.1181 461.503 35.5514 527.481C42.7638 533.832 49.9762 540.183 57.1886 546.534C107.675 590.99 160.223 636.857 181.86 690.134C192.164 715.89 193.194 742.705 193.709 768.814C194.224 791.748 194.739 815.74 202.467 838.674C219.983 891.95 264.803 931.467 331.26 952.283C406.99 975.923 501.782 972.395 585.239 942.052C594.512 938.876 603.27 935.348 612.028 932.172C694.456 902.182 779.974 871.134 872.705 852.787C934.526 840.791 998.922 835.145 1060.74 829.5C1094.74 826.677 1129.26 823.502 1163.78 819.268C1257.54 807.978 1325.03 781.163 1364.18 739.529C1406.94 694.015 1414.15 629.801 1385.3 553.943C1355.42 475.616 1317.3 396.935 1281.24 320.725C1249.81 255.452 1217.87 188.062 1190.05 121.025L1186.96 112.91C1165.84 60.3394 1136.47 -11.6371 1058.68 -34.9236C1040.65 -40.216 1022.1 -42.6858 1003.04 -42.6858Z" fill="black" fill-opacity="0.05"/>
<path d="M500.751 911.003C386.898 911.003 281.803 866.899 233.377 791.747C219.468 770.578 212.255 747.644 205.558 725.769C199.376 706.011 192.679 685.547 181.86 666.494C156.617 622.744 112.827 584.286 71.0983 547.239L63.3707 540.535C8.76256 491.846 -12.3595 453.387 -2.05607 419.163C7.21702 388.115 42.2487 361.3 105.615 337.308C148.374 321.078 193.709 307.318 238.014 293.91C275.106 282.62 313.744 270.976 350.321 257.922C433.779 227.932 513.631 190.885 590.391 154.897C625.423 138.667 662 121.731 697.547 105.854C702.699 103.737 707.85 101.267 713.002 98.7974C789.247 64.9261 893.312 18.7059 988.103 38.817C1064.35 55.047 1101.96 115.733 1129.78 159.836C1197.78 268.859 1272.48 397.641 1309.57 527.834C1327.09 588.167 1319.36 640.738 1287.93 684.136C1254.45 730.003 1196.23 763.169 1113.29 783.28C1039.11 801.274 962.345 817.504 888.16 833.381C796.46 852.786 701.668 873.25 612.028 896.537C574.936 906.416 537.328 911.003 500.751 911.003ZM939.162 37.7585C860.341 37.7585 778.429 74.0996 715.578 101.973C710.426 104.443 705.274 106.56 700.123 109.029C664.576 124.906 627.999 141.489 592.967 158.072C515.691 194.06 435.84 231.107 352.382 261.097C315.805 274.152 277.167 285.795 239.559 297.086C195.77 310.14 149.919 323.9 107.675 340.13C45.8549 363.77 11.8536 389.879 2.58048 419.869C-7.20777 453.035 13.3991 490.787 66.9769 538.419L74.7045 545.122C116.949 582.522 160.223 620.98 185.982 665.436C197.315 684.841 203.497 705.305 210.195 725.416C216.892 747.291 224.104 769.872 238.014 790.689C300.865 888.069 461.083 932.525 609.968 893.714C699.607 870.428 794.914 850.317 886.615 830.558C960.799 814.681 1037.56 798.451 1111.74 780.457C1271.45 741.646 1339.97 652.381 1304.42 528.892C1267.33 399.052 1192.63 270.271 1124.62 161.6C1097.32 118.203 1060.23 58.5753 986.043 42.6981C970.588 39.1698 955.133 37.7585 939.162 37.7585Z" fill="black" fill-opacity="0.05"/>
<path d="M552.268 854.903C372.473 854.903 278.712 748.35 188.042 644.619C158.162 610.748 130.343 578.641 98.9175 550.415C26.2783 484.083 38.1272 436.805 141.162 381.764C261.196 317.902 403.899 263.92 541.45 211.702C581.118 196.53 618.725 182.417 655.303 167.951C797.49 112.205 945.859 77.6278 1065.89 199C1147.81 281.914 1205.51 390.232 1228.69 504.194C1249.3 604.75 1186.96 686.605 1043.74 747.292C926.283 797.04 777.398 824.913 634.181 847.847C604.816 852.787 577.512 854.903 552.268 854.903ZM871.16 121.025C801.611 121.025 729.487 143.606 658.394 171.127C621.301 185.593 584.209 199.706 544.541 214.877C406.99 267.095 264.288 321.078 144.768 384.586C43.279 438.569 31.9452 483.025 103.554 548.298C134.979 576.877 162.799 608.984 192.679 642.855C282.834 745.528 376.08 851.375 553.299 851.375C578.542 851.375 605.331 849.258 633.665 844.672C776.368 822.091 924.737 794.217 1041.68 744.822C1184.9 684.136 1244.66 605.808 1224.05 505.253C1200.87 391.996 1143.69 284.031 1062.29 201.47C1003.56 142.548 938.647 121.025 871.16 121.025Z" fill="black" fill-opacity="0.05"/>
<path d="M614.089 799.863C415.748 799.863 274.591 674.962 159.708 573.701C154.041 568.762 148.374 563.822 143.222 558.883C120.04 538.419 112.312 516.191 120.555 492.198C155.071 388.115 475.508 279.444 596.058 238.517C606.361 234.988 615.635 231.813 622.332 229.343C735.669 189.827 881.978 155.25 1006.65 238.869C1100.41 302.025 1141.62 407.873 1148.84 485.848C1166.35 672.14 904.13 778.693 652.727 798.451C639.332 799.51 626.968 799.863 614.089 799.863ZM829.431 190.885C757.307 190.885 686.213 210.996 624.392 232.518C617.18 234.988 608.422 238.164 598.119 241.692C478.084 282.62 159.708 390.584 125.706 493.257C117.979 516.191 125.191 537.713 147.344 557.118C153.011 562.058 158.677 566.998 164.344 571.937C278.197 672.845 418.839 797.04 614.604 797.04C626.968 797.04 639.332 796.687 652.212 795.629C901.04 775.87 1160.69 670.728 1143.69 486.553C1136.47 409.284 1095.77 304.495 1003.04 241.692C947.92 204.292 888.16 190.885 829.431 190.885Z" fill="black" fill-opacity="0.05"/>
<path d="M653.757 746.939C495.6 746.939 307.562 655.91 200.921 564.175C184.436 549.709 179.284 533.479 185.466 515.132C221.013 413.165 597.603 289.323 601.21 287.912C745.973 241.692 861.887 239.928 945.859 282.267C1019.53 319.314 1064.86 391.29 1067.96 474.557C1072.59 619.216 891.251 741.646 663.545 746.939C660.454 746.586 657.363 746.939 653.757 746.939ZM804.187 255.099C745.458 255.099 678.485 267.095 603.786 290.735C574.936 299.908 479.114 333.427 386.383 376.119C306.532 413.165 207.619 467.148 191.133 515.485C184.951 532.773 190.103 548.298 205.558 561.705C311.168 652.734 497.66 743.41 654.272 743.41C657.363 743.41 660.454 743.41 663.545 743.41C767.095 740.941 869.614 712.009 944.314 663.672C1023.14 612.865 1065.38 545.828 1063.32 474.557C1060.74 392.701 1015.92 321.783 943.284 285.09C904.131 264.978 857.25 255.099 804.187 255.099Z" fill="black" fill-opacity="0.05"/>
<path d="M663.545 692.956C530.116 692.956 345.685 631.917 276.652 564.528C263.772 552.179 260.681 538.066 266.863 522.189C283.349 482.319 361.14 439.274 423.991 410.343C491.993 378.588 566.693 352.126 597.604 342.953C706.82 310.14 825.309 310.14 899.494 343.306C957.193 369.062 987.588 413.518 988.103 472.44C988.619 589.225 837.673 692.603 665.606 693.309C665.091 692.956 664.576 692.956 663.545 692.956ZM760.913 321.783C709.396 321.783 653.242 329.898 599.664 346.128C551.753 360.594 301.895 449.506 272.015 523.247C266.348 537.713 268.924 550.767 280.773 562.411C349.291 629.095 531.146 689.428 663.545 689.428C664.061 689.428 664.576 689.428 665.091 689.428C834.582 688.722 982.437 587.108 982.437 472.087C982.437 414.577 952.557 370.826 896.403 345.776C860.341 329.898 812.945 321.783 760.913 321.783Z" fill="black" fill-opacity="0.05"/>
<path d="M648.605 643.913C552.268 643.913 403.899 613.218 360.625 558.53C351.352 546.886 350.321 534.185 357.534 520.777C373.504 490.434 427.597 460.444 470.871 440.686C523.934 416.341 578.027 398.699 602.24 391.643C674.879 371.179 781.52 365.534 845.916 394.466C884.554 412.107 904.646 439.98 904.646 477.38C905.161 564.528 796.46 638.974 662.515 643.208C657.363 643.913 652.727 643.913 648.605 643.913ZM730.002 378.235C685.698 378.235 640.363 384.939 603.785 395.171C559.996 407.52 391.535 465.384 362.17 521.836C355.473 534.537 356.503 546.181 365.261 556.765C384.838 581.816 430.688 604.044 494.569 620.274C549.177 634.034 613.059 641.444 661.485 640.032C792.853 635.798 899.494 563.116 898.979 477.732C898.979 441.744 879.917 414.929 842.31 397.994C811.915 384.234 771.731 378.235 730.002 378.235Z" fill="black" fill-opacity="0.05"/>
<path d="M631.605 600.163C601.21 600.163 566.178 596.635 534.753 589.931C488.387 580.052 457.477 565.233 447.689 547.945C422.96 504.9 548.147 453.035 608.937 436.099C657.363 422.692 730.002 419.163 774.822 438.569C800.066 449.506 813.46 466.089 815.521 487.964C820.157 546.534 733.609 593.459 653.242 599.457C647.06 600.163 639.332 600.163 631.605 600.163ZM694.971 428.69C665.606 428.69 635.211 432.924 610.998 439.627C581.118 448.095 535.268 465.031 501.266 484.083C471.902 500.313 439.961 524.658 452.325 546.886C472.417 582.169 586.27 600.869 652.727 596.282C731.033 590.637 815.006 545.122 810.369 488.67C808.824 467.853 795.944 452.329 772.247 442.097C751.64 432.571 723.82 428.69 694.971 428.69Z" fill="black" fill-opacity="0.05"/>
<path d="M616.665 560.294C578.027 560.294 545.571 550.062 538.359 533.832C529.601 514.074 566.178 488.67 619.756 477.027C652.727 469.97 684.152 471.029 704.759 479.849C716.608 485.142 724.336 492.904 725.881 501.725C730.518 526.775 693.941 552.179 643.969 558.53C634.696 559.941 625.423 560.294 616.665 560.294ZM661.485 475.968C649.121 475.968 635.211 477.38 621.301 480.555C570.299 491.846 535.268 515.132 542.995 533.126C551.238 551.473 596.058 561.352 642.939 555.354C690.334 549.356 724.851 525.717 720.729 502.43C719.184 494.315 713.002 487.612 702.183 483.025C691.365 478.085 676.94 475.968 661.485 475.968Z" fill="black" fill-opacity="0.05"/>
</svg>
